<mxfile host="app.diagrams.net" agent="Mozilla/5.0 (Macintosh; Intel Mac OS X 10_15_7) AppleWebKit/537.36 (KHTML, like Gecko) Chrome/129.0.0.0 Safari/537.36" version="24.8.0" pages="2">
  <diagram name="Page-1" id="-mmJfN87k48Y5w4itgZ_">
    <mxGraphModel dx="1434" dy="785" grid="1" gridSize="10" guides="1" tooltips="1" connect="1" arrows="1" fold="1" page="1" pageScale="1" pageWidth="827" pageHeight="1169" math="0" shadow="0">
      <root>
        <mxCell id="0" />
        <mxCell id="1" parent="0" />
        <mxCell id="OV-CWN4_s9iYcNfIr0wD-1" value="$$A_{m,n} =&#xa; \begin{pmatrix}&#xa;  a_{1,1} &amp; a_{1,2} &amp; \cdots &amp; a_{1,n} \\&#xa;  a_{2,1} &amp; a_{2,2} &amp; \cdots &amp; a_{2,n} \\&#xa;  \vdots  &amp; \vdots  &amp; \ddots &amp; \vdots  \\&#xa;  a_{m,1} &amp; a_{m,2} &amp; \cdots &amp; a_{m,n}&#xa; \end{pmatrix}$$" style="text;html=1;spacing=5;spacingTop=-10;whiteSpace=wrap;overflow=hidden;fillColor=none;strokeColor=none;shadow=0;rounded=0;verticalAlign=middle" vertex="1" parent="1">
          <mxGeometry x="88" y="80" width="232" height="102" as="geometry" />
        </mxCell>
        <mxCell id="OV-CWN4_s9iYcNfIr0wD-2" value="&lt;p align=&quot;center&quot;&gt;&lt;b&gt;MathJax&lt;/b&gt;&lt;/p&gt;&lt;ul&gt;&lt;li&gt;High-quality typography&lt;/li&gt;&lt;li&gt;Works in all browsers&lt;/li&gt;&lt;/ul&gt;&lt;div style=&quot;text-align: center&quot;&gt;&lt;a target=&quot;_blank&quot; href=&quot;http://www.mathjax.org&quot;&gt;www.mathjax.org&lt;/a&gt;&lt;br&gt;&lt;/div&gt;" style="whiteSpace=wrap;rounded=1;html=1;align=left;verticalAlign=top;blue" vertex="1" parent="1">
          <mxGeometry x="309" y="266.75" width="190" height="118" as="geometry" />
        </mxCell>
        <mxCell id="OV-CWN4_s9iYcNfIr0wD-3" value="LaTeX" style="endArrow=classic;endFill=1;rounded=0;" edge="1" parent="1" source="OV-CWN4_s9iYcNfIr0wD-2" target="OV-CWN4_s9iYcNfIr0wD-1">
          <mxGeometry relative="1" as="geometry" />
        </mxCell>
        <mxCell id="OV-CWN4_s9iYcNfIr0wD-4" value="$$J_\alpha(x) = \sum\limits_{m=0}^\infty \frac{(-1)^m}{m! \, \Gamma(m + \alpha + 1)}{\left({\frac{x}{2}}\right)}^{2 m + \alpha}$$" style="text;html=1;spacing=5;spacingTop=-10;whiteSpace=wrap;overflow=hidden;fillColor=none;strokeColor=none;shadow=0;rounded=0;verticalAlign=middle" vertex="1" parent="1">
          <mxGeometry x="460" y="112" width="260" height="64" as="geometry" />
        </mxCell>
        <mxCell id="OV-CWN4_s9iYcNfIr0wD-5" value="LaTeX" style="endArrow=classic;endFill=1;rounded=0;" edge="1" parent="1" source="OV-CWN4_s9iYcNfIr0wD-2" target="OV-CWN4_s9iYcNfIr0wD-4">
          <mxGeometry relative="1" as="geometry" />
        </mxCell>
        <mxCell id="OV-CWN4_s9iYcNfIr0wD-6" value="`x = (-b +- sqrt(b^2-4ac))/(2a)`" style="text;html=1;spacing=5;spacingTop=-10;whiteSpace=wrap;overflow=hidden;fillColor=none;strokeColor=none;shadow=0;rounded=0;verticalAlign=middle" vertex="1" parent="1">
          <mxGeometry x="499" y="498" width="157" height="59" as="geometry" />
        </mxCell>
        <mxCell id="OV-CWN4_s9iYcNfIr0wD-7" value="Mixed/Inline" style="endArrow=classic;endFill=1;rounded=0;" edge="1" parent="1" source="OV-CWN4_s9iYcNfIr0wD-2" target="OV-CWN4_s9iYcNfIr0wD-9">
          <mxGeometry relative="1" as="geometry" />
        </mxCell>
        <mxCell id="OV-CWN4_s9iYcNfIr0wD-8" value="AsciiMath" style="endArrow=classic;endFill=1;rounded=0;" edge="1" parent="1" source="OV-CWN4_s9iYcNfIr0wD-2" target="OV-CWN4_s9iYcNfIr0wD-6">
          <mxGeometry relative="1" as="geometry" />
        </mxCell>
        <mxCell id="OV-CWN4_s9iYcNfIr0wD-9" value="LaTeX \(\sqrt{3Ã-1}+(1+x)^2\) and&lt;br&gt;AsciiMath `a^b + b^2 = c^2` inline" style="text;html=1;spacing=5;spacingTop=-10;whiteSpace=wrap;overflow=hidden;fillColor=none;strokeColor=none;shadow=0;rounded=0;verticalAlign=middle;align=center" vertex="1" parent="1">
          <mxGeometry x="134" y="491" width="206" height="72" as="geometry" />
        </mxCell>
      </root>
    </mxGraphModel>
  </diagram>
  <diagram name="Page-2" id="6RFVOrc3LkjSJnaGyQyJ">
    <mxGraphModel dx="1332" dy="983" grid="1" gridSize="10" guides="1" tooltips="1" connect="1" arrows="1" fold="1" page="1" pageScale="1" pageWidth="827" pageHeight="1169" math="1" shadow="0">
      <root>
        <mxCell id="D3lG09Jso_duDaEmXfXr-0" />
        <mxCell id="D3lG09Jso_duDaEmXfXr-1" parent="D3lG09Jso_duDaEmXfXr-0" />
        <mxCell id="41MV-0r4CxwcozOCYkJW-2" value="&lt;font style=&quot;font-size: 16px&quot;&gt;&lt;b&gt;Important equations in computing&lt;/b&gt;&lt;/font&gt;" style="shape=table;childLayout=tableLayout;rowLines=0;columnLines=0;startSize=40;html=1;whiteSpace=wrap;collapsible=0;recursiveResize=0;expand=0;pointerEvents=0;fillColor=#dae8fc;strokeColor=#6c8ebf;" parent="D3lG09Jso_duDaEmXfXr-1" vertex="1">
          <mxGeometry x="110" y="40" width="430" height="410" as="geometry" />
        </mxCell>
        <mxCell id="41MV-0r4CxwcozOCYkJW-10" value="" style="swimlane;horizontal=0;points=[[0,0.5],[1,0.5]];portConstraint=eastwest;startSize=0;html=1;whiteSpace=wrap;collapsible=0;recursiveResize=0;expand=0;pointerEvents=0;" parent="41MV-0r4CxwcozOCYkJW-2" vertex="1">
          <mxGeometry y="40" width="430" height="90" as="geometry" />
        </mxCell>
        <mxCell id="41MV-0r4CxwcozOCYkJW-11" value="" style="swimlane;connectable=0;startSize=0;html=1;whiteSpace=wrap;collapsible=0;recursiveResize=0;expand=0;pointerEvents=0;" parent="41MV-0r4CxwcozOCYkJW-10" vertex="1">
          <mxGeometry width="200" height="90" as="geometry" />
        </mxCell>
        <mxCell id="2" value="$$ \frac{df}{dt} = \lim _{(h \rightarrow 0)} \frac{f(t+h)-f(t)}{h}$$" style="text;html=1;align=left;verticalAlign=middle;resizable=0;points=[];autosize=1;" parent="41MV-0r4CxwcozOCYkJW-11" vertex="1">
          <mxGeometry x="10" y="27" width="340" height="20" as="geometry" />
        </mxCell>
        <mxCell id="41MV-0r4CxwcozOCYkJW-12" value="" style="swimlane;connectable=0;startSize=0;html=1;whiteSpace=wrap;collapsible=0;recursiveResize=0;expand=0;pointerEvents=0;" parent="41MV-0r4CxwcozOCYkJW-10" vertex="1">
          <mxGeometry x="200" width="230" height="90" as="geometry" />
        </mxCell>
        <mxCell id="_r6unnsgetzTEhW_tJpS-2" value="&lt;div&gt;&lt;b&gt;Fundamental Theorum of Calculus&lt;/b&gt;&lt;/div&gt;&lt;div&gt;&lt;br&gt;&lt;/div&gt;&lt;div&gt;Finds optimal solutions to problems &lt;br&gt;&lt;/div&gt;&lt;div&gt;in computing and other disciplines.&lt;br&gt;&lt;/div&gt;" style="text;html=1;align=left;verticalAlign=middle;resizable=0;points=[];autosize=1;" parent="41MV-0r4CxwcozOCYkJW-12" vertex="1">
          <mxGeometry x="10" y="15" width="210" height="60" as="geometry" />
        </mxCell>
        <mxCell id="41MV-0r4CxwcozOCYkJW-17" value="" style="swimlane;horizontal=0;points=[[0,0.5],[1,0.5]];portConstraint=eastwest;startSize=0;html=1;whiteSpace=wrap;collapsible=0;recursiveResize=0;expand=0;pointerEvents=0;" parent="41MV-0r4CxwcozOCYkJW-2" vertex="1">
          <mxGeometry y="130" width="430" height="70" as="geometry" />
        </mxCell>
        <mxCell id="41MV-0r4CxwcozOCYkJW-18" value="" style="swimlane;connectable=0;startSize=0;html=1;whiteSpace=wrap;collapsible=0;recursiveResize=0;expand=0;pointerEvents=0;" parent="41MV-0r4CxwcozOCYkJW-17" vertex="1">
          <mxGeometry width="200" height="70" as="geometry" />
        </mxCell>
        <mxCell id="_r6unnsgetzTEhW_tJpS-3" value="$$ \hat{f}\left( \xi \right) = \sum\limits_{-\infty}^\infty {f(x)e^{-2\pi i x \xi}&amp;nbsp; dx}&amp;nbsp; $$" style="text;html=1;align=left;verticalAlign=middle;resizable=0;points=[];autosize=1;" parent="41MV-0r4CxwcozOCYkJW-18" vertex="1">
          <mxGeometry x="11" y="20" width="420" height="20" as="geometry" />
        </mxCell>
        <mxCell id="41MV-0r4CxwcozOCYkJW-19" value="" style="swimlane;connectable=0;startSize=0;html=1;whiteSpace=wrap;collapsible=0;recursiveResize=0;expand=0;pointerEvents=0;" parent="41MV-0r4CxwcozOCYkJW-17" vertex="1">
          <mxGeometry x="200" width="230" height="70" as="geometry" />
        </mxCell>
        <mxCell id="m-ndDQ5zoxFJMQhGPnYD-2" value="&lt;div&gt;&lt;b&gt;Fourier Transform&lt;/b&gt;&lt;/div&gt;&lt;div&gt;&lt;br&gt;&lt;/div&gt;&lt;div&gt;Enables JPEG and MP3 compression.&lt;br&gt;&lt;/div&gt;" style="text;html=1;align=left;verticalAlign=middle;resizable=0;points=[];autosize=1;" parent="41MV-0r4CxwcozOCYkJW-19" vertex="1">
          <mxGeometry x="10" y="10" width="220" height="50" as="geometry" />
        </mxCell>
        <mxCell id="41MV-0r4CxwcozOCYkJW-24" value="" style="swimlane;horizontal=0;points=[[0,0.5],[1,0.5]];portConstraint=eastwest;startSize=0;html=1;whiteSpace=wrap;collapsible=0;recursiveResize=0;expand=0;pointerEvents=0;" parent="41MV-0r4CxwcozOCYkJW-2" vertex="1">
          <mxGeometry y="200" width="430" height="140" as="geometry" />
        </mxCell>
        <mxCell id="41MV-0r4CxwcozOCYkJW-25" value="" style="swimlane;connectable=0;startSize=0;html=1;whiteSpace=wrap;collapsible=0;recursiveResize=0;expand=0;pointerEvents=0;" parent="41MV-0r4CxwcozOCYkJW-24" vertex="1">
          <mxGeometry width="200" height="140" as="geometry" />
        </mxCell>
        <mxCell id="m-ndDQ5zoxFJMQhGPnYD-6" value="&lt;div&gt;$$ \vec{\nabla} \cdot \vec{B} = 0 $$&lt;br&gt;&lt;/div&gt;" style="text;html=1;align=left;verticalAlign=middle;resizable=0;points=[];autosize=1;" parent="41MV-0r4CxwcozOCYkJW-25" vertex="1">
          <mxGeometry x="11" y="20" width="200" height="20" as="geometry" />
        </mxCell>
        <mxCell id="m-ndDQ5zoxFJMQhGPnYD-7" value="$$ \vec{\nabla} \cdot \vec{D} = \rho_{enc} $$" style="text;html=1;align=left;verticalAlign=middle;resizable=0;points=[];autosize=1;" parent="41MV-0r4CxwcozOCYkJW-25" vertex="1">
          <mxGeometry x="11" y="40" width="250" height="20" as="geometry" />
        </mxCell>
        <mxCell id="m-ndDQ5zoxFJMQhGPnYD-8" value="$$ \vec{\nabla} \times \vec{E} = - \frac{\partial B}{\partial t} $$" style="text;html=1;align=left;verticalAlign=middle;resizable=0;points=[];autosize=1;" parent="41MV-0r4CxwcozOCYkJW-25" vertex="1">
          <mxGeometry x="11" y="70" width="340" height="20" as="geometry" />
        </mxCell>
        <mxCell id="m-ndDQ5zoxFJMQhGPnYD-9" value="$$ \vec{\nabla} \times \vec{H} = \vec{J} + \frac{\partial \vec{D}}{\partial t} $$" style="text;html=1;align=left;verticalAlign=middle;resizable=0;points=[];autosize=1;" parent="41MV-0r4CxwcozOCYkJW-25" vertex="1">
          <mxGeometry x="11" y="100" width="410" height="20" as="geometry" />
        </mxCell>
        <mxCell id="41MV-0r4CxwcozOCYkJW-26" value="" style="swimlane;connectable=0;startSize=0;html=1;whiteSpace=wrap;collapsible=0;recursiveResize=0;expand=0;pointerEvents=0;" parent="41MV-0r4CxwcozOCYkJW-24" vertex="1">
          <mxGeometry x="200" width="230" height="140" as="geometry" />
        </mxCell>
        <mxCell id="m-ndDQ5zoxFJMQhGPnYD-10" value="&lt;div align=&quot;left&quot;&gt;&lt;b&gt;Maxwell&#39;s Equations&lt;/b&gt;&lt;/div&gt;&lt;div&gt;&lt;br&gt;&lt;/div&gt;&lt;div&gt;Describes how modern communication &lt;br&gt;&lt;/div&gt;&lt;div align=&quot;left&quot;&gt;uses electromagnetism and optics. &lt;br&gt;&lt;/div&gt;" style="text;html=1;align=center;verticalAlign=middle;resizable=0;points=[];autosize=1;" parent="41MV-0r4CxwcozOCYkJW-26" vertex="1">
          <mxGeometry x="5" y="17" width="220" height="60" as="geometry" />
        </mxCell>
        <mxCell id="m-ndDQ5zoxFJMQhGPnYD-11" style="swimlane;horizontal=0;points=[[0,0.5],[1,0.5]];portConstraint=eastwest;startSize=0;html=1;whiteSpace=wrap;collapsible=0;recursiveResize=0;expand=0;pointerEvents=0;" parent="41MV-0r4CxwcozOCYkJW-2" vertex="1">
          <mxGeometry y="340" width="430" height="70" as="geometry" />
        </mxCell>
        <mxCell id="m-ndDQ5zoxFJMQhGPnYD-12" style="swimlane;connectable=0;startSize=0;html=1;whiteSpace=wrap;collapsible=0;recursiveResize=0;expand=0;pointerEvents=0;" parent="m-ndDQ5zoxFJMQhGPnYD-11" vertex="1">
          <mxGeometry width="200" height="70" as="geometry" />
        </mxCell>
        <mxCell id="m-ndDQ5zoxFJMQhGPnYD-14" value="$$ i \hbar \frac{\partial}{\partial t}\Psi(t) = \hat H \Psi(t) $$" style="text;html=1;align=left;verticalAlign=middle;resizable=0;points=[];autosize=1;" parent="m-ndDQ5zoxFJMQhGPnYD-12" vertex="1">
          <mxGeometry x="11" y="20" width="320" height="20" as="geometry" />
        </mxCell>
        <mxCell id="m-ndDQ5zoxFJMQhGPnYD-13" style="swimlane;connectable=0;startSize=0;html=1;whiteSpace=wrap;collapsible=0;recursiveResize=0;expand=0;pointerEvents=0;" parent="m-ndDQ5zoxFJMQhGPnYD-11" vertex="1">
          <mxGeometry x="200" width="230" height="70" as="geometry" />
        </mxCell>
        <mxCell id="m-ndDQ5zoxFJMQhGPnYD-15" value="&lt;div&gt;&lt;b&gt;Schrödinger&#39;s equation&lt;/b&gt;&lt;/div&gt;&lt;div&gt;&lt;br&gt;&lt;/div&gt;&lt;div&gt;Describes state in quantum computing.&lt;br&gt;&lt;/div&gt;" style="text;html=1;align=left;verticalAlign=middle;resizable=0;points=[];autosize=1;" parent="m-ndDQ5zoxFJMQhGPnYD-13" vertex="1">
          <mxGeometry x="11" y="12" width="220" height="50" as="geometry" />
        </mxCell>
      </root>
    </mxGraphModel>
  </diagram>
</mxfile>
